HIERARCHY
ROOT root
{
	OFFSET	0	13.1	24.9
	CHANNELS 6  Xposition Yposition Zposition Xrotation Yrotation Zrotation
	JOINT spine_1
	{
		OFFSET	0	9.99999	0
		CHANNELS 3  Xrotation Yrotation Zrotation
		JOINT spine_2
		{
			OFFSET	0	112	-10
			CHANNELS 3  Xrotation Yrotation Zrotation
			JOINT spine_3
			{
				OFFSET	0	206.5	19.3
				CHANNELS 3  Xrotation Yrotation Zrotation
				JOINT spine_4
				{
					OFFSET	0	110.4	14.6
					CHANNELS 3  Xrotation Yrotation Zrotation
					JOINT neck_1
					{
						OFFSET	0	71.8	-50.3
						CHANNELS 3  Xrotation Yrotation Zrotation
						JOINT neck_2
						{
							OFFSET	0	86.2	-25.8
							CHANNELS 3  Xrotation Yrotation Zrotation
							JOINT head_ee
							{
								OFFSET	0	179.8	-8.7
								CHANNELS 3  Xrotation Yrotation Zrotation
								End Site
								{
									OFFSET	1	0	0
								}
							}
						}
					}
					JOINT left_clavicle
					{
						OFFSET	-43.2	22.4	-70.8
						CHANNELS 3  Xrotation Yrotation Zrotation
						JOINT left_shoulder
						{
							OFFSET	-93.9	-5.79999	48.7
							CHANNELS 3  Xrotation Yrotation Zrotation
							JOINT left_elbow
							{
								OFFSET	-291.4	-30.8	15.2
								CHANNELS 3  Xrotation Yrotation Zrotation
								JOINT left_lowarm_twist
								{
									OFFSET	-110.7	-3.89999	13.6
									CHANNELS 3  Xrotation Yrotation Zrotation
									JOINT left_hand
									{
										OFFSET	-110.7	-3.89999	13.6
										CHANNELS 3  Xrotation Yrotation Zrotation
										JOINT left_ee
										{
											OFFSET	-80.8	-5.10001	12.1
											CHANNELS 3  Xrotation Yrotation Zrotation
											End Site
											{
												OFFSET	1	0	0
											}
										}
									}
								}
							}
						}
					}
					JOINT right_clavicle
					{
						OFFSET	43.2	22.4	-70.8
						CHANNELS 3  Xrotation Yrotation Zrotation
						JOINT right_shoulder
						{
							OFFSET	93.9	-5.79999	48.7
							CHANNELS 3  Xrotation Yrotation Zrotation
							JOINT right_elbow
							{
								OFFSET	291.4	-30.8	15.2
								CHANNELS 3  Xrotation Yrotation Zrotation
								JOINT right_lowarm_twist
								{
									OFFSET	110.7	-3.89999	13.6
									CHANNELS 3  Xrotation Yrotation Zrotation
									JOINT right_hand
									{
										OFFSET	110.7	-3.89999	13.6
										CHANNELS 3  Xrotation Yrotation Zrotation
										JOINT right_ee
										{
											OFFSET	80.8	-5.10001	12.1
											CHANNELS 3  Xrotation Yrotation Zrotation
											End Site
											{
												OFFSET	1	0	0
											}
										}
									}
								}
							}
						}
					}
				}
			}
		}
	}
	JOINT left_hip
	{
		OFFSET	-82.8	-127.5	0.300001
		CHANNELS 3  Xrotation Yrotation Zrotation
		JOINT left_knee
		{
			OFFSET	-28.2	-396.7	2.2
			CHANNELS 3  Xrotation Yrotation Zrotation
			JOINT left_ankle
			{
				OFFSET	-11.7	-411.3	35.4
				CHANNELS 3  Xrotation Yrotation Zrotation
				JOINT left_toes
				{
					OFFSET	0	-60	-88.6
					CHANNELS 3  Xrotation Yrotation Zrotation
					JOINT left_foot_ee
					{
						OFFSET	-22.5	-16.5	-42.2
						CHANNELS 3  Xrotation Yrotation Zrotation
						End Site
						{
							OFFSET	1	0	0
						}
					}
				}
			}
		}
	}
	JOINT right_hip
	{
		OFFSET	82.8	-127.5	0.300001
		CHANNELS 3  Xrotation Yrotation Zrotation
		JOINT right_knee
		{
			OFFSET	28.2	-396.7	2.2
			CHANNELS 3  Xrotation Yrotation Zrotation
			JOINT right_ankle
			{
				OFFSET	11.7	-411.3	35.4
				CHANNELS 3  Xrotation Yrotation Zrotation
				JOINT right_toes
				{
					OFFSET	0	-60	-88.6
					CHANNELS 3  Xrotation Yrotation Zrotation
					JOINT right_foot_ee
					{
						OFFSET	22.5	-16.5	-42.2
						CHANNELS 3  Xrotation Yrotation Zrotation
						End Site
						{
							OFFSET	1	0	0
						}
					}
				}
			}
		}
	}
}
MOTION
Frames: 11
Frame Time: 0.02
833.103 697.655 -567.966 160.363 -83.5553 160.875 -2.82175 0.490958 1.3403 -2.82084 0.404684 1.36882 -2.80961 0.0381064 1.42687 -2.81235 0.262953 1.40295 -5.8232 1.6416 -0.924985 -5.81793 3.7151 -0.631697 -0.0 0.0 -0.0 0.154303 17.2574 2.26079 -19.4434 -24.1852 71.4753 0.328128 -9.23259 0.0264946 13.1957 0.274906 -1.65951 -0.989155 28.8548 5.90856 -0.0 0.0 -0.0 11.7324 26.3741 -22.7287 28.9034 21.4021 -53.3878 2.89955 55.1433 -1.51426 -23.3077 1.37495 -2.62335 -5.11715 -13.8062 27.4944 0.0 0.0 0.0 23.5449 12.6481 -2.30016 3.60115 -0.164959 -0.527833 -12.0635 15.8427 1.81713 -16.3097 0.0 0.0 -0.0 0.0 -0.0 -26.6063 25.0902 -0.32528 -0.496798 -0.0201371 -0.0735795 36.846 -20.9611 4.74792 -18.2901 0.0 0.0 0.0 0.0 0.0 
855.503 696.582 -575.208 162.016 -82.5534 162.849 -2.87158 0.449613 1.09981 -2.87099 0.378722 1.12619 -2.86245 0.074477 1.18582 -2.86432 0.260808 1.15918 -5.23914 2.35719 -0.663064 -5.23235 4.83467 -0.258387 -0.0 0.0 -0.0 0.424617 17.3261 2.68465 -18.797 -24.2365 71.1681 0.412496 -11.549 0.0417143 12.6125 0.270878 -1.58513 -1.08295 28.9144 5.42741 -0.0 0.0 -0.0 11.1634 27.2605 -21.3367 27.9916 21.2084 -53.8309 2.94775 55.5847 -1.55392 -22.8205 1.33562 -2.57488 -4.81519 -13.5739 25.5097 0.0 0.0 0.0 23.2076 12.5166 -2.34628 2.86078 -0.128334 -0.42016 -12.7976 16.6361 1.93274 -16.6812 0.0 0.0 -0.0 0.0 -0.0 -27.6808 25.2534 -0.147895 -1.04732 -0.0417051 -0.155312 37.6504 -21.7383 4.84612 -18.0144 0.0 0.0 0.0 0.0 0.0 
878.036 703.557 -580.465 159.636 -82.7506 160.3 -2.94208 0.323417 1.17766 -2.94134 0.24783 1.19585 -2.93502 -0.0715555 1.21916 -2.93707 0.121871 1.21516 -3.99603 3.12727 2.20631 -3.98089 4.02653 2.7667 -0.0 0.0 -0.0 0.863366 16.9412 3.32564 -17.1271 -24.8524 71.1717 0.415416 -11.6285 0.0423009 12.8117 0.272339 -1.61052 -1.12311 28.935 5.2197 -0.0 0.0 -0.0 11.8021 25.9122 -22.9396 24.5842 21.23 -52.9646 2.96016 55.6967 -1.56416 -22.6335 1.32063 -2.55619 -4.83158 -13.7147 25.5298 0.0 0.0 0.0 22.3134 12.1211 -1.90406 0.148586 -0.00614702 -0.0219732 -10.1762 14.5442 1.52541 -13.6304 0.0 0.0 -0.0 0.0 -0.0 -26.6925 25.4452 0.349973 -4.59548 -0.161743 -0.686534 36.8027 -23.0807 4.796 -18.2236 0.0 0.0 0.0 0.0 0.0 
897.574 709.904 -588.263 162.831 -81.7444 162.946 -2.814 0.459708 0.96878 -2.81356 0.397133 0.996065 -2.80579 0.126983 1.06476 -2.80725 0.29354 1.03135 -2.5514 4.02896 3.4972 -2.51577 4.55272 4.21287 -0.0 0.0 -0.0 0.673598 16.7696 3.01485 -15.2743 -25.0223 71.2159 0.573306 -15.8547 0.0798321 13.1131 0.274381 -1.64897 -1.11152 28.7925 5.22226 -0.0 0.0 -0.0 11.9357 26.6153 -23.1637 20.9044 20.6857 -51.6823 2.98219 55.8941 -1.58238 -23.0443 1.35363 -2.59718 -4.64956 -14.7372 23.5783 0.0 0.0 0.0 22.4761 11.8982 -1.95387 -5.29933 0.181629 0.79272 -3.74792 12.9057 0.554581 -13.8602 0.0 0.0 -0.0 0.0 -0.0 -26.9204 27.1899 2.47303 -6.37249 -0.209433 -0.955062 35.7889 -23.3016 4.69818 -18.3486 0.0 0.0 0.0 0.0 0.0 
925.246 712.881 -596.705 162.375 -81.6 162.694 -2.66933 0.22796 1.04794 -2.66873 0.160819 1.06032 -2.66494 -0.115331 1.06623 -2.66652 0.0544977 1.07106 -2.10264 3.46146 4.33405 -2.05309 2.8211 5.01062 -0.0 0.0 -0.0 0.38858 18.4354 2.74309 -13.5271 -25.3036 70.8176 0.660413 -18.1156 0.105283 11.8909 0.264848 -1.49315 -1.27762 28.8392 4.34705 -0.0 0.0 -0.0 11.1243 26.4409 -21.3428 17.3543 18.6291 -53.449 3.11773 57.0653 -1.69538 -22.1748 1.28413 -2.51013 -4.27731 -11.9987 22.7767 0.0 0.0 0.0 19.9625 11.4341 -1.00013 -4.56703 0.160912 0.682245 0.532934 14.681 -0.0783621 -13.0175 0.0 0.0 -0.0 0.0 -0.0 -25.4221 25.4869 2.07158 -10.2862 -0.284953 -1.55077 34.8442 -25.4697 4.65887 -18.1026 0.0 0.0 0.0 0.0 0.0 
945.535 714.176 -603.414 162.057 -81.8212 161.974 -2.30934 0.0234951 0.963634 -2.30882 -0.0378682 0.963176 -2.30897 -0.276908 0.923294 -2.31014 -0.127623 0.955435 -2.54881 3.81787 4.2413 -2.50054 3.5837 4.96109 -0.0 0.0 -0.0 0.853179 17.6737 3.37637 -11.9036 -25.6655 70.8961 0.689299 -18.853 0.114441 10.9804 0.255587 -1.37722 -1.52389 28.6492 2.93753 -0.0 0.0 -0.0 10.8477 26.4779 -20.7145 13.533 18.0151 -53.6085 3.05751 56.5538 -1.64499 -21.4595 1.22794 -2.43774 -4.16843 -11.9906 22.0291 0.0 0.0 0.0 18.6297 11.2619 -0.32592 -6.04974 0.201391 0.906185 4.33994 11.9587 -0.62931 -12.284 0.0 0.0 -0.0 0.0 -0.0 -23.8317 26.524 2.48428 -15.6434 -0.322078 -2.3716 34.9586 -25.4796 4.67138 -17.9935 0.0 0.0 0.0 0.0 0.0 
981.308 722.471 -608.455 154.502 -83.0153 154.863 -2.02202 -0.1574 0.5316 -2.02188 -0.190908 0.520507 -2.02357 -0.312418 0.458006 -2.02378 -0.236164 0.501598 -1.97663 4.97694 5.71712 -1.8896 4.44525 6.66133 -0.0 0.0 -0.0 0.766834 20.732 3.52306 -9.83266 -25.755 70.1286 0.730263 -19.8876 0.128028 8.0227 0.212812 -1.00188 -1.44768 28.6937 3.3678 -0.0 0.0 -0.0 10.205 25.0887 -19.4181 8.5 15.5615 -55.0096 3.24153 58.0741 -1.79988 -21.1895 1.20697 -2.41023 -3.90069 -12.1921 20.0765 0.0 0.0 0.0 15.6998 11.3102 0.0407898 -7.73677 0.240379 1.16213 9.73289 8.89768 -1.38492 -12.7279 0.0 0.0 -0.0 0.0 -0.0 -20.9136 25.8823 2.09115 -23.2971 -0.241937 -3.54236 34.8365 -25.0846 4.64695 -18.8053 0.0 0.0 0.0 0.0 0.0 
1005.21 726.601 -616.894 145.883 -83.7928 146.041 -1.85908 -0.298107 0.480075 -1.85902 -0.328051 0.460133 -1.86171 -0.429595 0.367135 -1.86171 -0.366222 0.430374 -1.7685 4.69377 6.1902 -1.66804 3.52788 7.12475 -0.0 0.0 -0.0 1.29126 20.4343 4.26022 -8.52844 -26.3286 69.817 0.761083 -20.6573 0.138707 6.07112 0.174001 -0.755619 -1.52648 27.2235 2.28193 -0.0 0.0 -0.0 9.65621 24.3427 -18.2644 3.59237 14.8712 -55.1092 3.08481 56.7874 -1.66779 -21.1422 1.20332 -2.40541 -3.75658 -11.4458 19.5412 0.0 0.0 0.0 13.1847 11.3379 0.897662 -7.96231 0.245019 1.19643 14.0557 3.65413 -1.97293 -13.7939 0.0 0.0 -0.0 0.0 -0.0 -18.4625 25.8556 1.82601 -31.1031 -0.000234468 -4.71506 36.5637 -25.8864 4.8527 -18.3137 0.0 0.0 0.0 0.0 0.0 
1015.71 725.295 -618.362 146.713 -83.0585 147.211 -1.73545 -0.152893 0.274867 -1.73543 -0.170074 0.264581 -1.73622 -0.228538 0.216099 -1.73624 -0.191541 0.24948 -2.12736 4.25221 6.20775 -2.02602 2.76435 7.08193 -0.0 0.0 -0.0 2.88352 19.5394 6.5586 -7.31895 -26.3988 66.8841 0.766724 -20.7974 0.140704 5.1147 0.151921 -0.635441 -1.66721 26.5041 1.17879 -0.0 0.0 -0.0 9.60116 24.8676 -18.0898 0.80264 15.0349 -55.4338 2.83362 54.5233 -1.46036 -20.2737 1.13682 -2.31621 -3.28745 -11.5221 16.3485 0.0 0.0 0.0 11.648 11.7993 0.627963 -8.23404 0.25043 1.23778 21.8451 3.0776 -2.96355 -12.0526 0.0 0.0 -0.0 0.0 -0.0 -14.8411 26.109 0.70896 -36.4271 0.255245 -5.4916 36.4934 -24.935 4.81641 -20.2553 0.0 0.0 0.0 0.0 0.0 
1027.34 725.587 -624.877 143.977 -82.7008 144.879 -1.71531 -0.124871 0.148991 -1.71531 -0.134098 0.140743 -1.71565 -0.163888 0.104555 -1.71564 -0.145319 0.129126 -3.94373 3.63277 6.29185 -3.83718 1.80665 7.0518 -0.0 0.0 -0.0 4.13547 18.5536 8.4326 -5.43309 -26.8162 64.9848 0.774398 -20.9874 0.14344 4.97524 0.148534 -0.617948 -1.78802 25.4092 -0.00421494 -0.0 0.0 -0.0 8.99559 25.2898 -16.6996 -2.23113 15.2075 -56.0551 2.64489 52.6385 -1.30847 -19.1222 1.05077 -2.19645 -2.81036 -11.9329 12.9879 0.0 0.0 0.0 10.2476 12.553 0.617715 -8.63465 0.25805 1.29878 21.6395 4.68129 -2.9342 -11.6575 0.0 0.0 -0.0 0.0 -0.0 -11.6761 26.237 -0.600879 -39.9011 0.460487 -5.98444 34.3433 -23.6866 4.55657 -22.6586 0.0 0.0 0.0 0.0 0.0 
1041.36 729.652 -629.306 141.057 -82.3644 142.318 -1.71321 -0.183373 -0.00556426 -1.71323 -0.182647 -0.0172215 -1.71319 -0.173219 -0.0604305 -1.71315 -0.180589 -0.0323153 -4.45235 3.59086 6.32579 -4.34422 1.76843 7.07182 -0.0 0.0 -0.0 4.97833 17.7708 9.74231 -3.75618 -27.2207 63.6844 0.795758 -21.514 0.151183 4.33157 0.13235 -0.537318 -1.86149 25.1924 -0.518865 -0.0 0.0 -0.0 8.60701 25.1949 -15.8479 -5.15042 14.8104 -56.6902 2.44362 50.4319 -1.15085 -18.4525 1.00185 -2.12602 -2.44293 -12.0926 10.5253 0.0 0.0 0.0 8.55978 12.9123 0.578742 -9.00426 0.264701 1.35511 27.7903 3.97915 -3.65046 -10.1717 0.0 0.0 -0.0 0.0 -0.0 -9.04834 26.3818 -1.536 -42.8743 0.659681 -6.3959 36.0017 -22.1937 4.69202 -23.3505 0.0 0.0 0.0 0.0 0.0 
